<svg width="32" height="32" viewBox="0 0 32 32" fill="none" xmlns="http://www.w3.org/2000/svg"> <g clip-path="url(#clip0_57_5)"> <path d="M32 23.7525V8.2475C32 3.69253 28.3075 0 23.7525 0H8.2475C3.69253 0 0 3.69253 0 8.2475V23.7525C0 28.3075 3.69253 32 8.2475 32H23.7525C28.3075 32 32 28.3075 32 23.7525Z" fill="url(#paint0_linear_57_5)"/> <path d="M23.6978 10.3025C23.5562 10.1609 23.3697 10.0732 23.1704 10.0545C22.9711 10.0358 22.7715 10.0873 22.6061 10.2C21.3202 11.0765 14.8704 15.4839 14.1772 16.177C13.172 17.1822 13.172 18.8178 14.1772 19.8231C14.6799 20.3256 15.3401 20.5769 16.0003 20.5769C16.6605 20.5769 17.3207 20.3256 17.8233 19.8231C18.5164 19.1299 22.9238 12.6801 23.8003 11.3942C23.913 11.2288 23.9644 11.0292 23.9457 10.8299C23.927 10.6306 23.8393 10.444 23.6978 10.3025ZM16.6079 18.6077C16.2729 18.9428 15.7276 18.9428 15.3926 18.6077C15.0575 18.2727 15.0575 17.7276 15.3924 17.3925C15.6618 17.1264 17.493 15.8204 19.746 14.2543C18.18 16.5073 16.874 18.3384 16.6079 18.6077Z" fill="white"/> <path d="M8.96305 21.9971L7.90215 22.5146C7.12588 21.1292 6.71875 19.5829 6.71875 18C6.71875 16.8402 6.93261 15.7294 7.32289 14.705L8.53852 15.2881C8.65429 15.3438 8.78111 15.3728 8.9096 15.3728C9.22984 15.3728 9.53729 15.193 9.68505 14.8849C9.89027 14.457 9.7098 13.9437 9.28184 13.7384L8.08163 13.1627C9.57338 10.7298 12.1544 9.03362 15.1407 8.7582V10.0507C15.1407 10.5254 15.5254 10.9101 16 10.9101C16.4747 10.9101 16.8594 10.5254 16.8594 10.0507V8.75755C17.8833 8.85075 18.874 9.11148 19.8144 9.53602C20.2469 9.73131 20.756 9.53885 20.9512 9.10637C21.1465 8.67376 20.9542 8.1648 20.5216 7.9695C19.0965 7.32622 17.5752 7 16 7C13.0618 7 10.2995 8.14417 8.2218 10.2218C6.14421 12.2995 5 15.0618 5 18C5 20.1712 5.64445 22.2829 6.86368 24.1065C6.97918 24.2793 7.15338 24.4043 7.35402 24.4585C7.55465 24.5127 7.76813 24.4924 7.95492 24.4013L9.71664 23.5419C10.1432 23.3338 10.3203 22.8193 10.1122 22.3927C9.90415 21.9662 9.38964 21.7891 8.96305 21.9971ZM26.0305 13.4785C25.8352 13.0459 25.3263 12.8534 24.8936 13.0488C24.461 13.2441 24.2686 13.7531 24.4639 14.1856C25.0063 15.3869 25.2812 16.6703 25.2812 18C25.2812 19.5853 24.8728 21.1341 24.0942 22.5211L22.9866 21.9936C22.5582 21.7896 22.0454 21.9715 21.8413 22.4001C21.6372 22.8286 21.8192 23.3414 22.2477 23.5455L24.0524 24.4048C24.2388 24.4936 24.4509 24.5123 24.6499 24.4575C24.8489 24.4028 25.0216 24.2782 25.1363 24.1065C26.3556 22.2829 27 20.1712 27 18C27 16.4248 26.6738 14.9035 26.0305 13.4785Z" fill="white"/> </g> <defs> <linearGradient id="paint0_linear_57_5" x1="2.41562" y1="2.41562" x2="29.5844" y2="29.5844" gradientUnits="userSpaceOnUse"> <stop stop-color="#2563EB"/> <stop offset="1" stop-color="#3B82F6"/> </linearGradient> <clipPath id="clip0_57_5"> <rect width="32" height="32" fill="white"/> </clipPath> </defs> </svg>